<svg xmlns="http://www.w3.org/2000/svg" enable-background="new 0 0 2500 2000" viewBox="0 0 2500 2000"><rect width="2500" height="2000" fill="none"/><path fill="#ffc749" d="M1397.16,430.48c-16.8,51.55,56.18,97.09,108.89,84.56c58.5-13.9,55.24-95.8,9.85-112.36
		C1473.03,387.04,1415.23,375.01,1397.16,430.48z"/><path fill="#ececec" d="M1404.93,436.94l-31.58,7.22c-2.43,0.56-2.54,3.97-0.16,4.69l33.67,10.1
		C1406.86,458.95,1414.2,448.53,1404.93,436.94z"/><ellipse cx="1416.94" cy="431.28" fill="#233d4c" rx="2.03" ry="3.67"/><ellipse cx="1399.47" cy="432.01" fill="#233d4c" rx="1.62" ry="2.93"/><line x1="1401.45" x2="1374.45" y1="446.21" y2="447.95" fill="none" stroke="#233d4c" stroke-linecap="round" stroke-linejoin="round" stroke-miterlimit="10" stroke-width="3"/><path fill="none" stroke="#fa0" stroke-linecap="round" stroke-linejoin="round" stroke-miterlimit="10" stroke-width="3" d="M1477.37,428.61c18.65,1.21,36.79,9.16,50.33,22.04c4.3,4.1,8.42,9.56,7.37,15.41
		c-0.86,4.83-5.18,8.45-9.85,9.94c-4.67,1.49-9.69,1.25-14.59,0.99c-3.52-0.19-7.19-0.41-10.24-2.2c-3.04-1.78-5.18-5.64-3.84-8.9
		c6.21-0.77,12.27,4.29,13.53,10.41c1.26,6.13-1.71,12.65-6.59,16.58c-4.87,3.92-11.34,5.47-17.59,5.32
		c-2.8-0.07-5.81-0.55-7.79-2.53s-2.18-5.86,0.24-7.27c2.46-1.44,5.83,0.8,6.33,3.61c0.5,2.8-1.08,5.6-3.11,7.6
		c-5.72,5.68-15.54,6.62-22.23,2.12s-9.53-13.94-6.44-21.38"/><polyline fill="none" stroke="#233d4c" stroke-linecap="round" stroke-linejoin="round" stroke-miterlimit="10" stroke-width="3" points="1490.71 512.21 1495.01 558.78 1479.57 570.9"/><polyline fill="none" stroke="#233d4c" stroke-linecap="round" stroke-linejoin="round" stroke-miterlimit="10" stroke-width="3" points="1493.45 570.9 1495.01 558.78 1507.76 569.36"/><polyline fill="none" stroke="#233d4c" stroke-linecap="round" stroke-linejoin="round" stroke-miterlimit="10" stroke-width="3" points="1456.66 512.21 1453.7 558.78 1440.18 569.36"/><polyline fill="none" stroke="#233d4c" stroke-linecap="round" stroke-linejoin="round" stroke-miterlimit="10" stroke-width="3" points="1451.66 569.36 1453.7 558.78 1465.28 569.36"/><path fill="none" stroke="#fa0" stroke-linecap="round" stroke-linejoin="round" stroke-miterlimit="10" stroke-width="3" d="M1537.82,430.17c23.24-18.17,51.85-29.4,81.24-31.88c3.82-0.32,8.51-0.04,10.26,3.36
		c1.06,2.04,0.58,4.61-0.65,6.56s-3.09,3.39-4.95,4.75c-13.26,9.7-42.61,27.25-43.85,22c-1.21-5.09,24.82-13.64,38.63-12.18
		c3.52,0.37,7.48,1.45,9.07,4.62c1.21,2.41,0.62,5.42-0.87,7.67s-3.74,3.86-6.03,5.3c-10.93,6.85-36.18,18.17-36.66,10.82
		c-0.25-3.78,8.47-3.15,11.33,0.08s2.81,8.39,0.6,12.09c-2.22,3.71-6.2,6.08-10.36,7.25c-4.16,1.17-8.53,1.27-12.85,1.36
		c-11.43,0.25-23.43,0.36-33.52-5.01"/><path fill="none" stroke="#fa0" stroke-linecap="round" stroke-linejoin="round" stroke-miterlimit="10" stroke-width="3" d="M1409.62,410.45c0.47-10.41,4.53-20.62,11.34-28.51c2.07-2.4,4.49-4.65,7.49-5.67c3-1.02,6.69-0.53,8.75,1.88
		c1.51,1.76,1.92,4.38,1.02,6.51c-0.9,2.13-3.96,5.65-5.37,3.82c-2.26-2.93,4.84-6,8.53-5.8s7.07,3.09,7.85,6.7
		s-1.11,7.63-4.39,9.34"/><g><path fill="#609b88" d="M1695.03,1624.07c39.02,0,67.1-31.69,47.41-63.63c-16.86-27.34-76.68-15.1-89.43,11.56
		c33.72-53.08,3.17-89.75-25.21-93.06c-28.37-3.3-84.24,26.49-81.22,72.56c-18.59-15.33-48.49-13.85-58.46,0
		c-18.84,26.19,17.24,72.56,17.24,72.56H1695.03z"/><rect width="85" height="814.15" x="1448.29" y="809.92" fill="#e0e0e0"/><path fill="#ffc749" d="M1203.3,839.74h-37.36c-3.36,0-6.08-2.72-6.08-6.08l0,0c0-3.36,2.72-6.08,6.08-6.08h37.36V839.74z"/><circle cx="1203.3" cy="833.66" r="6.08" fill="#fa0"/><path fill="#ffc749" d="M1311.23,839.74h-37.36c-3.36,0-6.08-2.72-6.08-6.08l0,0c0-3.36,2.72-6.08,6.08-6.08h37.36V839.74z"/><circle cx="1311.23" cy="833.66" r="6.08" fill="#fa0"/><rect width="85" height="814.15" x="1490.79" y="809.92" fill="#ececec"/><path fill="#609b88" d="M1349.91,669.33v162.13h-221.08V669.33c0-61.06,49.49-110.54,110.54-110.54
			C1300.42,558.78,1349.91,608.27,1349.91,669.33z"/><path fill="#a1c180" d="M1349.91,997.59V835.46h-221.08v162.13c0,61.06,49.49,110.55,110.54,110.55
			C1300.42,1108.13,1349.91,1058.64,1349.91,997.59z"/><path fill="#a1c180" d="M1784.72,669.33v145.45c0,9.21-7.47,16.68-16.68,16.68h-418.13V669.33c0-61.06-49.49-110.54-110.54-110.54
			h434.81C1735.23,558.78,1784.72,608.27,1784.72,669.33z"/><path fill="#a1c180" d="M1395.97,1624.07c-29.26,0-50.32-26.4-35.55-53.01c12.64-22.78,57.5-12.58,67.07,9.63
		c-25.29-44.23-2.38-74.77,18.91-77.53c21.28-2.75,63.18,22.07,60.91,60.45c13.94-12.78,36.37-11.54,43.84,0
		c14.13,21.82-12.93,60.45-12.93,60.45H1395.97z"/></g><g><path fill="#609b88" d="M882.76,1624.22h138.34c0.72-1.29,5.24-9.71,1.74-18.27c-3.72-9.1-14.99-14.71-26.97-12.18
		c17.11-7.85,26.25-23.33,23.49-33.93c-3.34-12.81-25.52-24.08-49.59-13.92c-4.07-16.1-20.77-25.37-35.67-20.88
		c-13.77,4.15-22.53,19.02-19.14,33.93c-17.07-5.09-35.43,2.7-43.5,18.27C863.12,1593.29,867.88,1613.44,882.76,1624.22z"/><rect width="34.32" height="516.81" x="872.13" y="1107.42" fill="#233d4c"/><circle cx="889.29" cy="961.25" r="174.01" fill="#ececec"/><path fill="#a1c180" d="M752.51,1624.22c-9.38-10.39-9.95-25.42-2.61-34.8c8.91-11.39,28.42-13.11,40.89-0.87
		c-10.15-38.76,1.93-71.79,18.27-77.43c17.47-6.03,51.33,15.28,64.38,60.03c6.78-6.47,17.2-5.97,22.62,0
		c4.46,4.91,4.99,12.9,0.87,19.14c11.99-14.04,32.66-13.74,42.63-2.61c8.24,9.2,8.56,25.09-0.87,36.54
		C876.63,1624.22,814.57,1624.22,752.51,1624.22z"/><path fill="#ffa300" d="M913.56,961.25l56.36-56.36c6.7-6.7,6.7-17.57,0-24.27c-6.7-6.7-17.56-6.7-24.27,0l-56.36,56.36l-56.36-56.36
		c-6.7-6.7-17.56-6.7-24.27,0c-6.7,6.7-6.7,17.57,0,24.27l56.36,56.36l-56.36,56.36c-6.7,6.7-6.7,17.57,0,24.27
		c3.35,3.35,7.74,5.03,12.13,5.03c4.39,0,8.78-1.68,12.13-5.03l56.36-56.36l56.36,56.36c3.35,3.35,7.74,5.03,12.13,5.03
		s8.78-1.68,12.13-5.03c6.7-6.7,6.7-17.57,0-24.27L913.56,961.25z"/></g></svg>